<svg width="7" height="15" viewBox="0 0 7 15" fill="none" xmlns="http://www.w3.org/2000/svg">
<path id="Vector" d="M5.83854 14.9999C5.68912 15.0005 5.54148 14.9651 5.40648 14.8966C5.27147 14.828 5.15253 14.7278 5.0584 14.6035L0.227529 8.17557C0.0804207 7.98387 0 7.74342 0 7.49528C0 7.24713 0.0804207 7.00668 0.227529 6.81498L5.22843 0.38702C5.3982 0.168237 5.64215 0.030652 5.90663 0.00453332C6.1711 -0.0215853 6.43443 0.0659013 6.63868 0.247747C6.84294 0.429592 6.97138 0.690902 6.99577 0.974189C7.02015 1.25748 6.93848 1.53954 6.76871 1.75832L2.2979 7.50063L6.61868 13.243C6.74098 13.4002 6.81868 13.5917 6.84256 13.7948C6.86644 13.9978 6.83552 14.204 6.75345 14.3888C6.67138 14.5736 6.5416 14.7294 6.37946 14.8377C6.21732 14.946 6.02961 15.0023 5.83854 14.9999Z" fill="#231F20"/>
</svg>
