<svg width="12" height="24" viewBox="0 0 12 24" fill="none" xmlns="http://www.w3.org/2000/svg">
<path id="Vector" d="M9.34166 23.9999C9.10259 24.0008 8.86637 23.9442 8.65036 23.8345C8.43436 23.7247 8.24405 23.5645 8.09344 23.3657L0.364046 13.0809C0.128673 12.7742 0 12.3895 0 11.9924C0 11.5954 0.128673 11.2107 0.364046 10.904L8.36549 0.619231C8.63712 0.269179 9.02744 0.0490432 9.4506 0.00725332C9.87376 -0.0345366 10.2951 0.105442 10.6219 0.396395C10.9487 0.687348 11.1542 1.10544 11.1932 1.5587C11.2322 2.01196 11.1016 2.46326 10.8299 2.81331L3.67664 12.001L10.5899 21.1887C10.7856 21.4403 10.9099 21.7467 10.9481 22.0716C10.9863 22.3965 10.9368 22.7264 10.8055 23.0221C10.6742 23.3178 10.4666 23.5671 10.2071 23.7404C9.94771 23.9137 9.64737 24.0037 9.34166 23.9999Z" fill="#231F20"/>
</svg>
