<svg width="20" height="20" viewBox="0 0 20 20" fill="none" xmlns="http://www.w3.org/2000/svg">
<g id="&#240;&#159;&#166;&#134; icon &#34;finn the human&#34;">
<path id="Vector" d="M7.85714 11.7391C7.85714 11.9971 7.79431 12.2493 7.67658 12.4638C7.55885 12.6783 7.39151 12.8455 7.19573 12.9442C6.99995 13.0429 6.78453 13.0687 6.57669 13.0184C6.36885 12.9681 6.17794 12.8439 6.0281 12.6614C5.87826 12.479 5.77621 12.2466 5.73487 11.9936C5.69353 11.7406 5.71475 11.4783 5.79584 11.24C5.87694 11.0016 6.01427 10.7979 6.19046 10.6546C6.36666 10.5113 6.57381 10.4348 6.78571 10.4348C7.06978 10.4352 7.34211 10.5727 7.54298 10.8172C7.74384 11.0618 7.85683 11.3933 7.85714 11.7391ZM13.2143 10.4348C13.0024 10.4348 12.7952 10.5113 12.619 10.6546C12.4428 10.7979 12.3055 11.0016 12.2244 11.24C12.1433 11.4783 12.1221 11.7406 12.1634 11.9936C12.2048 12.2466 12.3068 12.479 12.4567 12.6614C12.6065 12.8439 12.7974 12.9681 13.0053 13.0184C13.2131 13.0687 13.4285 13.0429 13.6243 12.9442C13.8201 12.8455 13.9874 12.6783 14.1051 12.4638C14.2229 12.2493 14.2857 11.9971 14.2857 11.7391C14.2854 11.3933 14.1724 11.0618 13.9715 10.8172C13.7707 10.5727 13.4983 10.4352 13.2143 10.4348ZM20 3.47827V12.1739C19.9981 14.2488 19.3202 16.238 18.115 17.7052C16.9098 19.1724 15.2758 19.9977 13.5714 20H6.42857C4.7242 19.9977 3.09018 19.1724 1.88501 17.7052C0.67983 16.238 0.00191985 14.2488 0 12.1739V3.47827C4.78989e-05 2.63166 0.253713 1.81413 0.713451 1.17892C1.17319 0.5437 1.80744 0.134399 2.49732 0.0277298C3.18721 -0.0789398 3.88537 0.124345 4.46095 0.599482C5.03653 1.07462 5.45002 1.78899 5.62391 2.6087H14.3761C14.55 1.78899 14.9635 1.07462 15.5391 0.599482C16.1146 0.124345 16.8128 -0.0789398 17.5027 0.0277298C18.1926 0.134399 18.8268 0.5437 19.2866 1.17892C19.7463 1.81413 20 2.63166 20 3.47827ZM16.4286 11.3044C16.4286 10.8476 16.3547 10.3953 16.2111 9.97327C16.0675 9.55127 15.8571 9.16783 15.5917 8.84484C15.3264 8.52185 15.0115 8.26565 14.6648 8.09085C14.3182 7.91605 13.9466 7.82609 13.5714 7.82609H6.42857C5.67081 7.82609 4.94408 8.19255 4.40827 8.84485C3.87245 9.49715 3.57143 10.3819 3.57143 11.3044V12.1739C3.57144 13.0964 3.87246 13.9811 4.40828 14.6334C4.94409 15.2857 5.67081 15.6522 6.42857 15.6522H13.5714C14.3292 15.6522 15.0559 15.2857 15.5917 14.6334C16.1276 13.9811 16.4286 13.0964 16.4286 12.1739V11.3044Z" fill="#B3B3B3"/>
</g>
</svg>
