<svg width="20" height="20" viewBox="0 0 20 20" fill="none" xmlns="http://www.w3.org/2000/svg">
<g id="&#240;&#159;&#166;&#134; icon &#34;Chat&#34;">
<path id="Vector" fill-rule="evenodd" clip-rule="evenodd" d="M7.25 0C3.24595 0 0 3.60661 0 8.05556C0 18.0556 12 20 12 20V16.1111H12.75C16.754 16.1111 20 12.5045 20 8.05556C20 3.60661 16.754 0 12.75 0H7.25ZM10 9.72222C10.6903 9.72222 11.25 9.10039 11.25 8.33333C11.25 7.56628 10.6903 6.94444 10 6.94444C9.30965 6.94444 8.75 7.56628 8.75 8.33333C8.75 9.10039 9.30965 9.72222 10 9.72222ZM15.25 8.33333C15.25 9.10039 14.6903 9.72222 14 9.72222C13.3097 9.72222 12.75 9.10039 12.75 8.33333C12.75 7.56628 13.3097 6.94444 14 6.94444C14.6903 6.94444 15.25 7.56628 15.25 8.33333ZM6 9.72222C6.69035 9.72222 7.25 9.10039 7.25 8.33333C7.25 7.56628 6.69035 6.94444 6 6.94444C5.30965 6.94444 4.75 7.56628 4.75 8.33333C4.75 9.10039 5.30965 9.72222 6 9.72222Z" fill="#ff6b00"/>
</g>
</svg>
