<svg width="24" height="24" viewBox="0 0 24 24" fill="none" xmlns="http://www.w3.org/2000/svg">
<g id="&#240;&#159;&#166;&#134; icon &#34;x letter&#34;">
<path id="Vector" d="M23.648 21.951C23.7595 22.0624 23.848 22.1947 23.9084 22.3403C23.9688 22.4859 24 22.642 24 22.7996C24 22.9573 23.969 23.1134 23.9087 23.2591C23.8484 23.4047 23.76 23.5371 23.6485 23.6485C23.5371 23.76 23.4047 23.8484 23.2591 23.9087C23.1134 23.969 22.9573 24 22.7996 24C22.642 24 22.4859 23.9688 22.3403 23.9084C22.1947 23.848 22.0624 23.7595 21.951 23.648L11.9995 13.6965L2.04796 23.648C1.82287 23.8728 1.51773 23.999 1.1996 23.9989C0.881478 23.9988 0.576413 23.8724 0.351465 23.6475C0.126518 23.4225 9.9813e-05 23.1175 5.90796e-08 22.7993C-9.96948e-05 22.4812 0.126128 22.1761 0.350934 21.951L10.3024 11.9995L0.350934 2.04796C0.126128 1.82287 -9.96948e-05 1.51773 5.90796e-08 1.1996C9.9813e-05 0.881478 0.126518 0.576413 0.351465 0.351465C0.576413 0.126518 0.881478 9.9813e-05 1.1996 5.90796e-08C1.51773 -9.96948e-05 1.82287 0.126128 2.04796 0.350934L11.9995 10.3024L21.951 0.350934C22.1761 0.126128 22.4812 -9.96948e-05 22.7993 5.90796e-08C23.1175 9.9813e-05 23.4225 0.126518 23.6475 0.351465C23.8724 0.576413 23.9988 0.881478 23.9989 1.1996C23.999 1.51773 23.8728 1.82287 23.648 2.04796L13.6965 11.9995L23.648 21.951Z" fill="#B3B3B3"/>
</g>
</svg>
