<svg width="30" height="30" viewBox="0 0 30 30" fill="none" xmlns="http://www.w3.org/2000/svg">
<g id="Group">
<path id="Vector" d="M24.8075 14.6414C24.8075 9.27046 20.4235 4.90358 14.9998 4.90358C9.5762 4.90358 5.19216 9.27046 5.19216 14.6414C5.19216 16.1003 5.37237 17.0381 5.59427 17.7259C5.74384 18.182 6.10059 17.732 6.27713 17.5665C6.85636 17.0234 7.62379 16.7262 8.41778 16.7376C9.21177 16.7491 9.97032 17.0682 10.5337 17.6278C12.2758 19.3589 13.883 21.7593 11.6628 23.9661C10.4711 25.1503 8.67634 25.6432 7.31062 24.3682C5.54769 22.7205 4.01646 20.8031 3.26249 18.4836C2.94865 17.5101 2.74023 16.3099 2.74023 14.6402C2.74023 7.90106 8.23622 2.45166 14.9998 2.45166C21.7635 2.45166 27.2595 7.90106 27.2595 14.6414C27.2595 16.3112 27.0523 17.5114 26.7372 18.4823C25.9832 20.8031 24.452 22.7205 22.6891 24.3669C21.3234 25.6432 19.5286 25.1516 18.3369 23.9661C16.1179 21.7593 17.7239 19.3589 19.4648 17.6278C20.0282 17.0678 20.787 16.7485 21.5813 16.737C22.3756 16.7256 23.1433 17.023 23.7226 17.5665C24.0622 17.8853 24.2301 18.2653 24.4054 17.7259C24.6273 17.0394 24.8075 16.0991 24.8075 14.6414Z" fill="#34A9FF"/>
</g>
</svg>
