<svg width="24" height="24" viewBox="0 0 24 24" fill="none" xmlns="http://www.w3.org/2000/svg">
<g id="Group">
<path id="Vector" d="M19.8462 11.7133C19.8462 7.41652 16.3389 3.92303 12 3.92303C7.66108 3.92303 4.15385 7.41652 4.15385 11.7133C4.15385 12.8804 4.29802 13.6307 4.47554 14.1809C4.59519 14.5457 4.8806 14.1858 5.02183 14.0534C5.48521 13.6189 6.09916 13.3811 6.73434 13.3903C7.36953 13.3994 7.97638 13.6547 8.42706 14.1024C9.82073 15.4873 11.1065 17.4076 9.33035 19.173C8.37704 20.1204 6.94119 20.5147 5.84861 19.4947C4.43827 18.1765 3.21329 16.6426 2.61011 14.787C2.35904 14.0083 2.19231 13.0481 2.19231 11.7123C2.19231 6.32101 6.5891 1.96149 12 1.96149C17.4109 1.96149 21.8077 6.32101 21.8077 11.7133C21.8077 13.0491 21.6419 14.0093 21.3899 14.786C20.7867 16.6426 19.5617 18.1765 18.1514 19.4937C17.0588 20.5147 15.623 20.1214 14.6697 19.173C12.8945 17.4076 14.1793 15.4873 15.572 14.1024C16.0227 13.6544 16.6297 13.3989 17.2652 13.3898C17.9006 13.3806 18.5147 13.6186 18.9782 14.0534C19.2498 14.3084 19.3842 14.6124 19.5245 14.1809C19.702 13.6317 19.8462 12.8794 19.8462 11.7133Z" fill="#636363"/>
</g>
</svg>
