<svg width="14" height="22" viewBox="0 0 14 22" fill="none" xmlns="http://www.w3.org/2000/svg">
<g id="Group">
<path id="Vector" d="M2.87501 4.125C2.87501 3.03098 3.3096 1.98177 4.08319 1.20818C4.85678 0.434597 5.90599 0 7.00001 0C8.09403 0 9.14324 0.434597 9.91682 1.20818C10.6904 1.98177 11.125 3.03098 11.125 4.125V11C11.125 12.094 10.6904 13.1432 9.91682 13.9168C9.14324 14.6904 8.09403 15.125 7.00001 15.125C5.90599 15.125 4.85678 14.6904 4.08319 13.9168C3.3096 13.1432 2.87501 12.094 2.87501 11V4.125Z" fill="#636363"/>
<path id="Vector_2" d="M0.812515 8.9375C0.994852 8.9375 1.16972 9.00993 1.29865 9.13886C1.42758 9.2678 1.50002 9.44266 1.50002 9.625V11C1.50002 12.4587 2.07948 13.8576 3.11093 14.8891C4.14238 15.9205 5.54132 16.5 7.00002 16.5C8.45871 16.5 9.85765 15.9205 10.8891 14.8891C11.9206 13.8576 12.5 12.4587 12.5 11V9.625C12.5 9.44266 12.5724 9.2678 12.7014 9.13886C12.8303 9.00993 13.0052 8.9375 13.1875 8.9375C13.3699 8.9375 13.5447 9.00993 13.6737 9.13886C13.8026 9.2678 13.875 9.44266 13.875 9.625V11C13.875 12.7044 13.242 14.348 12.0987 15.6119C10.9554 16.8759 9.38332 17.6702 7.68752 17.8406V20.625H11.8125C11.9949 20.625 12.1697 20.6974 12.2987 20.8264C12.4276 20.9553 12.5 21.1302 12.5 21.3125C12.5 21.4948 12.4276 21.6697 12.2987 21.7986C12.1697 21.9276 11.9949 22 11.8125 22H2.18752C2.00518 22 1.83031 21.9276 1.70138 21.7986C1.57245 21.6697 1.50002 21.4948 1.50002 21.3125C1.50002 21.1302 1.57245 20.9553 1.70138 20.8264C1.83031 20.6974 2.00518 20.625 2.18752 20.625H6.31252V17.8406C4.61671 17.6702 3.04466 16.8759 1.90135 15.6119C0.758044 14.348 0.124994 12.7044 0.125015 11V9.625C0.125015 9.44266 0.197448 9.2678 0.326379 9.13886C0.455311 9.00993 0.630179 8.9375 0.812515 8.9375Z" fill="#636363"/>
</g>
</svg>
