<svg width="16" height="25" viewBox="0 0 16 25" fill="none" xmlns="http://www.w3.org/2000/svg">
<g id="Group">
<path id="Vector" d="M3.3125 4.6875C3.3125 3.4443 3.80636 2.25201 4.68544 1.37294C5.56451 0.49386 6.7568 0 8 0C9.2432 0 10.4355 0.49386 11.3146 1.37294C12.1936 2.25201 12.6875 3.4443 12.6875 4.6875V12.5C12.6875 13.7432 12.1936 14.9355 11.3146 15.8146C10.4355 16.6936 9.2432 17.1875 8 17.1875C6.7568 17.1875 5.56451 16.6936 4.68544 15.8146C3.80636 14.9355 3.3125 13.7432 3.3125 12.5V4.6875Z" fill="#FE6A6A"/>
<path id="Vector_2" d="M0.96875 10.1562C1.17595 10.1562 1.37466 10.2386 1.52118 10.3851C1.66769 10.5316 1.75 10.7303 1.75 10.9375V12.5C1.75 14.1576 2.40848 15.7473 3.58058 16.9194C4.75268 18.0915 6.3424 18.75 8 18.75C9.6576 18.75 11.2473 18.0915 12.4194 16.9194C13.5915 15.7473 14.25 14.1576 14.25 12.5V10.9375C14.25 10.7303 14.3323 10.5316 14.4788 10.3851C14.6253 10.2386 14.824 10.1562 15.0312 10.1562C15.2385 10.1562 15.4372 10.2386 15.5837 10.3851C15.7302 10.5316 15.8125 10.7303 15.8125 10.9375V12.5C15.8125 14.4368 15.0931 16.3045 13.7939 17.7408C12.4947 19.1772 10.7083 20.0798 8.78125 20.2734V23.4375H13.4688C13.676 23.4375 13.8747 23.5198 14.0212 23.6663C14.1677 23.8128 14.25 24.0115 14.25 24.2187C14.25 24.4259 14.1677 24.6247 14.0212 24.7712C13.8747 24.9177 13.676 25 13.4688 25H2.53125C2.32405 25 2.12534 24.9177 1.97882 24.7712C1.83231 24.6247 1.75 24.4259 1.75 24.2187C1.75 24.0115 1.83231 23.8128 1.97882 23.6663C2.12534 23.5198 2.32405 23.4375 2.53125 23.4375H7.21875V20.2734C5.29169 20.0798 3.50527 19.1772 2.20606 17.7408C0.90685 16.3045 0.187476 14.4368 0.1875 12.5V10.9375C0.1875 10.7303 0.26981 10.5316 0.416323 10.3851C0.562836 10.2386 0.76155 10.1562 0.96875 10.1562Z" fill="#FE6A6A"/>
</g>
</svg>
