<svg width="57" height="56" viewBox="0 0 57 56" fill="none" xmlns="http://www.w3.org/2000/svg">
<g id="Group 289723">
<path id="Ellipse 2" d="M56.5029 28C56.5029 43.464 43.9669 56 28.5029 56C13.039 56 0.50293 43.464 0.50293 28C0.50293 12.536 13.039 0 28.5029 0C43.9669 0 56.5029 12.536 56.5029 28Z" fill="url(#paint0_linear_231_2352)"/>
<path id="Vector" d="M40.2559 28.3755C40.2566 28.6726 40.1804 28.9649 40.0347 29.2238C39.8891 29.4827 39.6789 29.6996 39.4246 29.8532L23.6659 39.4935C23.4002 39.6562 23.0959 39.745 22.7844 39.7508C22.4729 39.7566 22.1655 39.6791 21.894 39.5263C21.625 39.376 21.401 39.1567 21.2449 38.891C21.0888 38.6253 21.0063 38.3229 21.0059 38.0148V18.7363C21.0063 18.4282 21.0888 18.1258 21.2449 17.8601C21.401 17.5944 21.625 17.3751 21.894 17.2248C22.1655 17.072 22.4729 16.9945 22.7844 17.0003C23.0959 17.0061 23.4002 17.0949 23.6659 17.2576L39.4246 26.8979C39.6789 27.0515 39.8891 27.2684 40.0347 27.5273C40.1804 27.7862 40.2566 28.0785 40.2559 28.3755Z" fill="white"/>
</g>
<defs>
<linearGradient id="paint0_linear_231_2352" x1="17.5029" y1="-8.5" x2="17.5029" y2="47.5" gradientUnits="userSpaceOnUse">
<stop stop-color="#FF984E"/>
<stop offset="1" stop-color="#FF6B00"/>
</linearGradient>
</defs>
</svg>
