<svg width="24" height="20" viewBox="0 0 24 20" fill="none" xmlns="http://www.w3.org/2000/svg">
<g id="&#240;&#159;&#166;&#134; icon &#34;User Edit&#34;">
<path id="Vector" d="M8.40033 9.99976C11.0517 9.99976 13.2005 7.76153 13.2005 4.99988C13.2005 2.23823 11.0517 0 8.40033 0C5.74897 0 3.60014 2.23823 3.60014 4.99988C3.60014 7.76153 5.74897 9.99976 8.40033 9.99976ZM11.7605 11.2497H11.1342C10.3017 11.6482 9.37537 11.8747 8.40033 11.8747C7.42529 11.8747 6.50275 11.6482 5.66647 11.2497H5.0402C2.25759 11.2497 0 13.6012 0 16.4996V18.1246C0 19.1597 0.806282 19.9995 1.80007 19.9995H12.1092C12.0192 19.7339 11.9817 19.4527 12.0117 19.1675L12.2667 16.7887L12.3117 16.3551L12.608 16.0465L15.5069 13.027C14.5881 11.945 13.2568 11.2497 11.7605 11.2497ZM13.4593 16.9254L13.2043 19.3081C13.163 19.7066 13.4855 20.0425 13.8643 19.9956L16.1481 19.73L21.3196 14.3434L18.6307 11.5427L13.4593 16.9254ZM23.7384 10.5037L22.3171 9.02322C21.9684 8.65995 21.3983 8.65995 21.0496 9.02322L19.632 10.4998L19.4783 10.6599L22.1709 13.4606L23.7384 11.8278C24.0872 11.4607 24.0872 10.8708 23.7384 10.5037Z" fill="#B3B3B3"/>
</g>
</svg>
