<svg width="12" height="12" viewBox="0 0 12 12" fill="none" xmlns="http://www.w3.org/2000/svg">
<path id="Vector" d="M4.48077 1.3763L2.62723 3.59995H0.500977C0.224727 3.59995 0.000976562 3.86843 0.000976562 4.19992V7.79975C0.000976562 8.13098 0.224727 8.39972 0.500977 8.39972H2.62723L4.48077 10.6234C4.79389 10.9991 5.33431 10.7351 5.33431 10.1991V1.80053C5.33431 1.26406 4.79348 1.00107 4.48077 1.3763ZM9.3416 0.0993612C9.10889 -0.0838802 8.79619 -0.0066338 8.64348 0.273103C8.49056 0.55234 8.55556 0.927572 8.78827 1.11081C10.1689 2.19801 10.9929 4.02568 10.9929 6.00008C10.9929 7.97449 10.1689 9.80216 8.78827 10.8894C8.55556 11.0723 8.49056 11.4478 8.64348 11.7268C8.79014 11.9946 9.10035 12.0908 9.3416 11.9006C11.0066 10.5891 12.001 8.38297 12.001 5.99983C12.001 3.6167 11.0066 1.4108 9.3416 0.0993612ZM10.001 5.99983C10.001 4.41166 9.33306 2.95148 8.2141 2.09402C7.98098 1.91553 7.67181 1.99852 7.5241 2.28051C7.37639 2.5625 7.44535 2.93573 7.67848 3.11447C8.5066 3.74919 9.00098 4.82764 9.00098 5.99983C9.00098 7.17203 8.5066 8.25048 7.67848 8.8852C7.44535 9.06369 7.37639 9.43692 7.5241 9.71916C7.65973 9.97815 7.9641 10.0976 8.2141 9.90565C9.33306 9.04819 10.001 7.58826 10.001 5.99983ZM7.04744 4.07817C6.80619 3.91993 6.50181 4.02418 6.36806 4.31441C6.23493 4.60465 6.32306 4.96938 6.56494 5.12962C6.83389 5.30687 7.00098 5.6406 7.00098 5.99983C7.00098 6.35932 6.83389 6.6928 6.56514 6.87004C6.32327 7.03029 6.23514 7.39502 6.36827 7.68526C6.50223 7.97674 6.80681 8.08024 7.04764 7.92149C7.63577 7.53276 8.00119 6.79655 8.00119 5.99958C8.00119 5.20262 7.63577 4.46666 7.04744 4.07817Z" fill="#B3B3B3"/>
</svg>
